<svg xmlns="http://www.w3.org/2000/svg" width="86.11" height="125.979" viewBox="0 0 86.11 125.979"><defs><style>.a{fill:#05b384;}</style></defs><path class="a" d="M150.1,43.7l16.446-22.053A2.9,2.9,0,0,0,164.222,17H93.413V13.3a6.968,6.968,0,1,0-5.81,0V120.169H83.922a2.9,2.9,0,0,0,0,5.809H97.095a2.9,2.9,0,1,0,0-5.809H93.412V70.283h70.7a2.9,2.9,0,0,0,2.33-4.64Zm-59.6-34.99a1.739,1.739,0,1,1,1.739-1.739A1.741,1.741,0,0,1,90.508,8.707Zm2.9,55.767h0V54.826h9.257a2.9,2.9,0,0,0,0-5.809H93.413V38.27H107.9a2.9,2.9,0,0,0,0-5.809H93.413V22.812h65.019L144.153,41.96a2.905,2.905,0,0,0,0,3.472l14.18,19.043H93.413Z" transform="translate(-81.017)"/></svg>